# Filter complex, Vstack y Hstack

La idea de esta clase es generar un mosaico de imagenes basado en un video inicial

### Requisitos
En esta clase estaremos usando un video con las siguientes características.


``` bash
Input #0, mov,mp4,m4a,3gp,3g2,mj2, from 'video.mp4':=    0B
  Metadata:
    major_brand     : isom
    minor_version   : 512
    compatible_brands: isomiso2avc1mp41
    title           : kudasaibeats - the girl i haven't met
    artist          : Ikigai
    encoder         : Lavf61.7.100
  Duration: 00:03:15.15, start: 0.000000, bitrate: 1027 kb/s
  Stream #0:0[0x1](und): Video: h264 (High) (avc1 / 0x31637661), yuv420p(tv, bt709, progressive), 1280x720 [SAR 1:1 DAR 16:9], 889 kb/s, 29.97 fps, 29.97 tbr, 30k tbn (default)
      Metadata:
        handler_name    : ISO Media file produced by Google Inc.
        vendor_id       : [0][0][0][0]
        encoder         : Lavc61.19.100 libx264
  Stream #0:1[0x2](eng): Audio: aac (LC) (mp4a / 0x6134706D), 44100 Hz, stereo, fltp, 129 kb/s (default)
      Metadata:
        handler_name    : ISO Media file produced by Google Inc.
        vendor_id       : [0][0][0][0]
```
